<svg width="24" height="21" viewBox="0 0 24 21" fill="none" xmlns="http://www.w3.org/2000/svg">
<path d="M12.8086 17.7383L14.8574 19.6738L12.8086 17.7383ZM12.3164 18.8633C12.4749 18.8633 12.6269 18.9262 12.739 19.0383C12.8511 19.1504 12.9141 19.3024 12.9141 19.4609C12.9141 19.6194 12.8511 19.7715 12.739 19.8835C12.6269 19.9956 12.4749 20.0586 12.3164 20.0586H1.39062C1.02361 20.0567 0.672367 19.9092 0.414062 19.6484C0.15423 19.3897 0.00745845 19.0386 0.00585938 18.6719V1.39063C0.00648202 1.20885 0.0430402 1.02899 0.113431 0.861391C0.183821 0.693794 0.286655 0.54177 0.416016 0.414062C0.673323 0.152554 1.02377 0.00366568 1.39062 0L17.8965 0C18.2632 0.00159907 18.6143 0.14837 18.873 0.408203L18.9141 0.453125C19.1486 0.709197 19.2795 1.04337 19.2813 1.39063V9.57031C19.2813 9.72882 19.2183 9.88084 19.1062 9.99292C18.9941 10.105 18.8421 10.168 18.6836 10.168C18.5251 10.168 18.3731 10.105 18.261 9.99292C18.1489 9.88084 18.0859 9.72882 18.0859 9.57031V1.39063C18.0857 1.34657 18.0705 1.30389 18.043 1.26953L18.0273 1.25391C17.9913 1.21711 17.9421 1.19605 17.8906 1.19531H1.39062C1.33911 1.19605 1.28997 1.21711 1.25391 1.25391C1.21782 1.29029 1.19748 1.33939 1.19727 1.39063V18.668C1.198 18.7195 1.21906 18.7686 1.25586 18.8047C1.29224 18.8408 1.34134 18.8611 1.39258 18.8613L12.3164 18.8633ZM18.6406 13.168C19.332 12.4453 19.8125 11.8223 20.8867 11.6992C22.8867 11.4707 24.7246 13.5195 23.7129 15.5352C23.4258 16.1094 22.8398 16.793 22.1934 17.4629C21.4844 18.1992 20.7031 18.9199 20.1445 19.4668L18.6426 20.957L17.4004 19.7617C15.9063 18.3242 13.4766 16.5117 13.3887 14.2695C13.334 12.707 14.5742 11.6914 16 11.709C17.2754 11.7266 17.8145 12.3594 18.6406 13.168ZM4.64453 13.168C4.7847 13.168 4.9217 13.2096 5.03814 13.2877C5.15457 13.3657 5.24518 13.4766 5.29846 13.6063C5.35173 13.7359 5.36527 13.8785 5.33735 14.0158C5.30943 14.1532 5.24131 14.2792 5.14165 14.3777C5.04199 14.4763 4.91528 14.543 4.77762 14.5694C4.63995 14.5958 4.49755 14.5807 4.36851 14.5259C4.23946 14.4712 4.12958 14.3794 4.05284 14.2621C3.9761 14.1448 3.93595 14.0073 3.9375 13.8672C3.9375 13.7743 3.95579 13.6824 3.99132 13.5966C4.02685 13.5108 4.07893 13.4329 4.14459 13.3672C4.21024 13.3016 4.28818 13.2495 4.37396 13.214C4.45974 13.1784 4.55168 13.1602 4.64453 13.1602V13.168ZM7.51758 14.5879C7.37677 14.5612 7.24969 14.4862 7.15826 14.3759C7.06684 14.2655 7.01681 14.1267 7.01681 13.9834C7.01681 13.8401 7.06684 13.7013 7.15826 13.5909C7.24969 13.4806 7.37677 13.4056 7.51758 13.3789H9.82227C9.96307 13.4056 10.0902 13.4806 10.1816 13.5909C10.273 13.7013 10.323 13.8401 10.323 13.9834C10.323 14.1267 10.273 14.2655 10.1816 14.3759C10.0902 14.4862 9.96307 14.5612 9.82227 14.5879H7.51758ZM4.64453 8.98438C4.78445 8.98438 4.92123 9.02589 5.03754 9.10367C5.15385 9.18145 5.24447 9.29198 5.29793 9.42129C5.35138 9.5506 5.36527 9.69286 5.33783 9.83006C5.31039 9.96727 5.24286 10.0932 5.14378 10.192C5.04471 10.2908 4.91854 10.358 4.78127 10.3851C4.64399 10.4122 4.50176 10.3979 4.37261 10.3441C4.24345 10.2902 4.13316 10.1993 4.05571 10.0828C3.97825 9.96626 3.93711 9.82937 3.9375 9.68945C3.93802 9.50228 4.01274 9.32294 4.14527 9.19077C4.27781 9.0586 4.45735 8.98438 4.64453 8.98438ZM7.51758 10.3398C7.37689 10.3156 7.2493 10.2424 7.15732 10.1333C7.06534 10.0241 7.0149 9.88592 7.0149 9.74316C7.0149 9.60041 7.06534 9.46224 7.15732 9.35306C7.2493 9.24389 7.37689 9.17072 7.51758 9.14649H12.2227C12.3633 9.17072 12.4909 9.24389 12.5829 9.35306C12.6749 9.46224 12.7253 9.60041 12.7253 9.74316C12.7253 9.88592 12.6749 10.0241 12.5829 10.1333C12.4909 10.2424 12.3633 10.3156 12.2227 10.3398H7.51758ZM4.64453 4.80469C4.78437 4.80469 4.92107 4.84615 5.03734 4.92384C5.15361 5.00153 5.24423 5.11196 5.29774 5.24115C5.35126 5.37034 5.36526 5.5125 5.33798 5.64965C5.3107 5.7868 5.24336 5.91279 5.14448 6.01167C5.0456 6.11055 4.91962 6.17788 4.78247 6.20516C4.64532 6.23245 4.50316 6.21844 4.37396 6.16493C4.24477 6.11142 4.13435 6.0208 4.05666 5.90452C3.97897 5.78825 3.9375 5.65156 3.9375 5.51172C3.9375 5.41887 3.95579 5.32693 3.99132 5.24115C4.02685 5.15537 4.07893 5.07743 4.14459 5.01177C4.21024 4.94612 4.28818 4.89404 4.37396 4.85851C4.45974 4.82298 4.55168 4.80469 4.64453 4.80469ZM7.51758 6.10352C7.37242 6.0901 7.23837 6.02008 7.14444 5.9086C7.0505 5.79712 7.00423 5.65315 7.01563 5.50781C7.00421 5.36227 7.05042 5.21807 7.14431 5.10628C7.2382 4.99448 7.37225 4.92405 7.51758 4.91016H14.1367C14.2838 4.92163 14.4203 4.99102 14.5163 5.10308C14.6122 5.21515 14.6598 5.36072 14.6484 5.50781C14.6598 5.65315 14.6136 5.79712 14.5196 5.9086C14.4257 6.02008 14.2916 6.0901 14.1465 6.10352H7.51758Z" fill="#1A1A1A"/>
</svg>
