<svg width="24" height="24" viewBox="0 0 24 24" fill="none" xmlns="http://www.w3.org/2000/svg">
<path d="M1.34223 1.88163e-05H9.66916C9.86866 -4.45846e-05 10.0656 0.045355 10.2455 0.132867C10.4237 0.220479 10.581 0.346312 10.7066 0.501671C10.8042 0.61918 10.8803 0.753489 10.9313 0.898234C10.9847 1.04415 11.0118 1.19862 11.0114 1.35428V9.77529C11.0112 9.9585 10.9744 10.1398 10.9032 10.3081C10.8321 10.4765 10.7279 10.6285 10.5972 10.7548C10.4713 10.8779 10.3225 10.9742 10.1596 11.0383C10.0012 11.1032 9.83211 11.1368 9.66135 11.1375H1.34223C1.17278 11.1364 1.00506 11.1028 0.847932 11.0383C0.689248 10.9751 0.543997 10.8815 0.420059 10.7627C0.288475 10.6344 0.183517 10.4807 0.111364 10.3107C0.0381506 10.1419 0.000229767 9.95964 3.32791e-08 9.77529V1.36221C0.00291755 1.03363 0.120612 0.716747 0.332139 0.467963L0.390752 0.412444C0.50273 0.293334 0.635139 0.19591 0.781504 0.124936C0.956983 0.0416398 1.14851 -0.00102829 1.34223 1.88163e-05V1.88163e-05ZM17.7362 13.267H19.7623C19.9614 13.267 20.1525 13.3472 20.2935 13.4899C20.4345 13.6326 20.514 13.8263 20.5145 14.0284V16.8163H23.2498C23.4484 16.8163 23.6389 16.8962 23.7796 17.0386C23.9202 17.1809 23.9995 17.3741 24 17.5757V19.6299C23.9995 19.8315 23.9202 20.0246 23.7796 20.167C23.6389 20.3093 23.4484 20.3893 23.2498 20.3893H20.5145V23.1791C20.5145 23.3807 20.4357 23.5741 20.2954 23.7168C20.1552 23.8595 19.9648 23.94 19.7662 23.9405H17.7362C17.5393 23.9374 17.3515 23.8558 17.2133 23.7133C17.0751 23.5709 16.9977 23.379 16.9977 23.1791V20.3913H14.241C14.0421 20.3908 13.8516 20.3104 13.711 20.1677C13.5704 20.025 13.4912 19.8317 13.4907 19.6299V17.5757C13.4918 17.3743 13.5712 17.1814 13.7117 17.0391C13.8522 16.8969 14.0425 16.8168 14.241 16.8163H16.9977V14.0284C16.9982 13.827 17.0772 13.6339 17.2173 13.4913C17.3575 13.3487 17.5475 13.2681 17.746 13.267H17.7362ZM1.34223 12.8705H9.66916C9.86838 12.871 10.0651 12.9156 10.2455 13.0013C10.4228 13.0878 10.5799 13.2115 10.7066 13.3642C10.804 13.4819 10.8801 13.6161 10.9313 13.7607C10.9845 13.9074 11.0117 14.0625 11.0114 14.2188V22.6319C11.0107 22.9053 10.9291 23.1723 10.7772 23.3981C10.6254 23.624 10.4102 23.7985 10.1596 23.8989C10.0016 23.9652 9.83233 23.9996 9.66135 24H1.34223C0.999161 23.9963 0.670006 23.8618 0.420059 23.6233C0.288901 23.4961 0.183968 23.3438 0.111364 23.1751C0.0378856 23.0058 -4.10117e-05 22.8228 3.32791e-08 22.6378V14.2247C0.000450185 14.0613 0.0302436 13.8994 0.0879193 13.7469C0.143903 13.5937 0.226631 13.4519 0.332139 13.3285L0.390752 13.273C0.503735 13.155 0.635926 13.0578 0.781504 12.9855C0.955026 12.9048 1.14357 12.8629 1.33442 12.8625L1.34223 12.8705ZM9.66916 14.2267H1.34223V22.6457C2.05536 22.6457 9.66916 22.6457 9.67698 22.6457C9.67698 21.9339 9.67698 14.2287 9.67698 14.2247L9.66916 14.2267ZM14.1921 1.88163e-05H22.519C22.7185 -4.45846e-05 22.9155 0.045355 23.0954 0.132867C23.2743 0.220237 23.4323 0.346085 23.5585 0.501671C23.6554 0.619656 23.7314 0.753839 23.7831 0.898234C23.835 1.04452 23.8614 1.19882 23.8613 1.35428V9.77529C23.8609 9.95865 23.8238 10.14 23.7522 10.3084C23.6807 10.4768 23.5762 10.6286 23.4451 10.7548C23.3219 10.8774 23.1757 10.9738 23.0153 11.0383C22.857 11.1033 22.6879 11.137 22.5171 11.1375H14.1921C14.0233 11.1364 13.8562 11.1027 13.6998 11.0383C13.5408 10.9756 13.3955 10.882 13.2719 10.7627C13.1398 10.6349 13.0347 10.4811 12.9632 10.3107C12.8882 10.1418 12.8495 9.95857 12.8499 9.77331V1.36221C12.8503 1.19883 12.8801 1.03689 12.9378 0.884354C12.9945 0.732097 13.0772 0.591153 13.182 0.467963L13.2348 0.412444C13.3513 0.292499 13.4883 0.195076 13.6392 0.124936C13.8124 0.0429629 14.0011 0.000331783 14.1921 1.88163e-05V1.88163e-05ZM22.519 1.35626H14.1921V9.77529C14.9052 9.77529 22.521 9.77529 22.5269 9.77529C22.5269 9.06346 22.5269 1.35825 22.5269 1.35428L22.519 1.35626ZM9.66916 1.35626H1.34223V9.77529C2.05536 9.77529 9.66916 9.77529 9.67698 9.77529C9.67698 9.06346 9.67698 1.35825 9.67698 1.35428L9.66916 1.35626Z" fill="#1A1A1A"/>
</svg>
