<?xml version="1.0" encoding="utf-8"?>
<svg width="100px" height="100px" viewBox="0 0 100 33" version="1.1" xmlns="http://www.w3.org/2000/svg">
  <g id="surface1" style="" transform="matrix(0.780488, 0, 0, 0.75629, 11.141907, 3.159645)">
    <path style=" stroke:none;fill-rule:nonzero;fill:rgb(23.921569%,73.333333%,23.921569%);fill-opacity:1;" d="M 22.234375 12.328125 C 23.890625 13.675781 24.71875 15.777344 24.71875 18.632812 L 24.71875 32.980469 L 16.832031 32.980469 L 16.832031 19.6875 C 16.832031 19.109375 16.613281 18.601562 16.179688 18.167969 C 15.746094 17.734375 15.238281 17.515625 14.660156 17.515625 L 10.0625 17.515625 C 9.480469 17.515625 8.984375 17.734375 8.570312 18.167969 C 8.15625 18.601562 7.949219 19.109375 7.949219 19.6875 L 7.949219 32.980469 L 0 32.980469 L 0 0 L 7.949219 0 L 7.949219 10.746094 C 8.074219 10.703125 8.363281 10.621094 8.820312 10.496094 C 9.273438 10.371094 9.875 10.3125 10.621094 10.3125 L 15.714844 10.3125 C 18.40625 10.308594 20.578125 10.984375 22.234375 12.328125 Z M 47.265625 10.308594 L 55.21875 10.308594 L 55.21875 24.222656 C 55.21875 26.832031 54.503906 28.945312 53.074219 30.558594 C 51.644531 32.171875 49.710938 32.980469 47.265625 32.980469 L 39.441406 32.980469 C 36.707031 32.980469 34.523438 32.226562 32.886719 30.714844 C 31.25 29.203125 30.433594 27.039062 30.433594 24.222656 L 30.433594 10.3125 L 38.386719 10.3125 L 38.386719 23.601562 C 38.386719 24.183594 38.59375 24.679688 39.007812 25.09375 C 39.417969 25.507812 39.917969 25.714844 40.496094 25.714844 L 45.09375 25.714844 C 45.671875 25.714844 46.179688 25.507812 46.613281 25.09375 C 47.050781 24.679688 47.265625 24.183594 47.265625 23.601562 Z M 61.242188 0 L 69.191406 0 L 69.191406 32.980469 L 61.242188 32.980469 Z M 100 10.308594 L 100 24.222656 C 100 26.832031 99.285156 28.945312 97.855469 30.558594 C 96.429688 32.171875 94.492188 32.980469 92.050781 32.980469 L 84.285156 32.980469 C 81.511719 32.980469 79.304688 32.226562 77.671875 30.714844 C 76.035156 29.203125 75.21875 27.039062 75.21875 24.222656 L 75.21875 10.3125 L 83.167969 10.3125 L 83.167969 23.601562 C 83.167969 24.183594 83.375 24.679688 83.789062 25.09375 C 84.203125 25.507812 84.699219 25.714844 85.28125 25.714844 L 89.9375 25.714844 C 90.515625 25.714844 91.015625 25.507812 91.429688 25.09375 C 91.84375 24.679688 92.050781 24.183594 92.050781 23.601562 L 92.050781 10.308594 Z M 100 10.308594 "/>
  </g>
</svg>