<svg width="29" height="30" viewBox="0 0 29 30" fill="none" xmlns="http://www.w3.org/2000/svg">
<path d="M14.5 0.833252C18.2359 0.833252 18.702 0.847419 20.1677 0.918252C21.6321 0.989085 22.629 1.22567 23.5062 1.577C24.4137 1.93684 25.1783 2.42417 25.9428 3.21042C26.6419 3.9186 27.1829 4.77525 27.5281 5.72075C27.8678 6.62317 28.0988 7.65167 28.1675 9.16042C28.2321 10.6706 28.25 11.1508 28.25 14.9999C28.25 18.849 28.2362 19.3293 28.1675 20.8394C28.0988 22.3482 27.8678 23.3753 27.5281 24.2791C27.1839 25.2251 26.6428 26.082 25.9428 26.7894C25.2552 27.5095 24.4238 28.0669 23.5062 28.4228C22.6304 28.7728 21.6321 29.0108 20.1677 29.0816C18.702 29.1482 18.2359 29.1666 14.5 29.1666C10.7641 29.1666 10.298 29.1524 8.83225 29.0816C7.36787 29.0108 6.371 28.7728 5.49375 28.4228C4.5757 28.0679 3.7441 27.5104 3.05725 26.7894C2.35793 26.0814 1.81691 25.2247 1.47188 24.2791C1.13088 23.3767 0.90125 22.3482 0.8325 20.8394C0.767875 19.3293 0.75 18.849 0.75 14.9999C0.75 11.1508 0.76375 10.6706 0.8325 9.16042C0.90125 7.65025 1.13088 6.62459 1.47188 5.72075C1.81595 4.77467 2.35711 3.91779 3.05725 3.21042C3.7443 2.48966 4.57584 1.9322 5.49375 1.577C6.371 1.22567 7.3665 0.989085 8.83225 0.918252C10.298 0.851669 10.7641 0.833252 14.5 0.833252ZM14.5 7.91659C12.6766 7.91659 10.928 8.66286 9.63864 9.99125C8.34933 11.3196 7.625 13.1213 7.625 14.9999C7.625 16.8785 8.34933 18.6802 9.63864 20.0086C10.928 21.337 12.6766 22.0833 14.5 22.0833C16.3234 22.0833 18.072 21.337 19.3614 20.0086C20.6507 18.6802 21.375 16.8785 21.375 14.9999C21.375 13.1213 20.6507 11.3196 19.3614 9.99125C18.072 8.66286 16.3234 7.91659 14.5 7.91659ZM23.4375 7.56242C23.4375 7.09276 23.2564 6.64235 22.9341 6.31025C22.6118 5.97816 22.1746 5.79159 21.7188 5.79159C21.2629 5.79159 20.8257 5.97816 20.5034 6.31025C20.1811 6.64235 20 7.09276 20 7.56242C20 8.03207 20.1811 8.48249 20.5034 8.81459C20.8257 9.14668 21.2629 9.33325 21.7188 9.33325C22.1746 9.33325 22.6118 9.14668 22.9341 8.81459C23.2564 8.48249 23.4375 8.03207 23.4375 7.56242ZM14.5 10.7499C15.594 10.7499 16.6432 11.1977 17.4168 11.9947C18.1904 12.7917 18.625 13.8727 18.625 14.9999C18.625 16.1271 18.1904 17.2081 17.4168 18.0051C16.6432 18.8022 15.594 19.2499 14.5 19.2499C13.406 19.2499 12.3568 18.8022 11.5832 18.0051C10.8096 17.2081 10.375 16.1271 10.375 14.9999C10.375 13.8727 10.8096 12.7917 11.5832 11.9947C12.3568 11.1977 13.406 10.7499 14.5 10.7499Z" fill="#F7BB42"/>
</svg>
