<svg width="28" height="27" viewBox="0 0 28 27" fill="none" xmlns="http://www.w3.org/2000/svg">
<path d="M14.6734 0.448525L18.2539 8.83173L27.335 9.64635C27.7358 9.68099 28.0323 10.034 27.9974 10.4345C27.9808 10.6298 27.8883 10.8 27.7516 10.9197L27.752 10.9199L20.8818 16.9189L22.9137 25.8105C23.0037 26.2031 22.7581 26.5941 22.3655 26.6842C22.1643 26.7304 21.9638 26.6883 21.8036 26.5837L14.0003 21.9186L6.17216 26.5987C5.82671 26.8052 5.37918 26.6926 5.17251 26.3471C5.07202 26.1794 5.04718 25.9871 5.08751 25.8105H5.08683L7.11894 16.9189L0.24877 10.9201C-0.054064 10.6551 -0.0845981 10.1948 0.180183 9.89199C0.314852 9.73796 0.500335 9.65456 0.689464 9.6443L9.7467 8.83173L13.329 0.443968C13.4867 0.0732288 13.9151 -0.0992661 14.2858 0.0584175C14.4681 0.135892 14.6025 0.278992 14.6734 0.448525ZM17.0824 9.80335L14.0003 2.58637L10.9179 9.80335L10.917 9.80313C10.8149 10.0426 10.5873 10.2192 10.3098 10.2434L2.49257 10.9447L8.37585 16.082C8.5921 16.2506 8.70353 16.535 8.63836 16.8203L6.88971 24.4716L13.6131 20.4518C13.8378 20.3112 14.1313 20.2987 14.3747 20.4443L21.1111 24.4716L19.3627 16.8203L19.3633 16.8198C19.3059 16.5671 19.3852 16.2916 19.5939 16.1091L25.5082 10.9447L17.7314 10.247C17.4561 10.2384 17.1975 10.0734 17.0824 9.80335Z" fill="#1A1A1A"/>
</svg>
