<svg width="29" height="27" viewBox="0 0 29 27" fill="none" xmlns="http://www.w3.org/2000/svg">
<path d="M22.2871 9.97021C23.5685 10.5943 25.0197 10.779 26.4166 10.4959V24.8334C26.4166 25.176 26.2805 25.5045 26.0383 25.7468C25.796 25.989 25.4675 26.1251 25.1249 26.1251H1.87492C1.53235 26.1251 1.20381 25.989 0.961572 25.7468C0.719338 25.5045 0.583252 25.176 0.583252 24.8334V4.16675C0.583252 3.82418 0.719338 3.49564 0.961572 3.2534C1.20381 3.01117 1.53235 2.87508 1.87492 2.87508H18.7958C18.7105 3.29229 18.6666 3.725 18.6666 4.16675C18.6644 5.70131 19.211 7.18609 20.2075 8.35304L13.5787 14.0906L5.29396 7.0575L3.62254 9.026L13.5942 17.4929L22.2871 9.97021ZM25.1249 8.04175C24.616 8.04175 24.1122 7.94152 23.642 7.74678C23.1719 7.55204 22.7447 7.26661 22.3849 6.90679C22.0251 6.54696 21.7396 6.11978 21.5449 5.64965C21.3501 5.17951 21.2499 4.67562 21.2499 4.16675C21.2499 3.65788 21.3501 3.15399 21.5449 2.68385C21.7396 2.21371 22.0251 1.78654 22.3849 1.42671C22.7447 1.06688 23.1719 0.781452 23.642 0.586715C24.1122 0.391978 24.616 0.291748 25.1249 0.291748C26.1526 0.291748 27.1383 0.700006 27.865 1.42671C28.5917 2.15341 28.9999 3.13903 28.9999 4.16675C28.9999 5.19446 28.5917 6.18008 27.865 6.90679C27.1383 7.63349 26.1526 8.04175 25.1249 8.04175Z" fill="black"/>
</svg>
