<svg width="31" height="31" viewBox="0 0 31 31" fill="none" xmlns="http://www.w3.org/2000/svg">
<path d="M15.5001 30.0833C7.44571 30.0833 0.916748 23.5543 0.916748 15.5C0.916748 7.44558 7.44571 0.916626 15.5001 0.916626C23.5545 0.916626 30.0834 7.44558 30.0834 15.5C30.0834 23.5543 23.5545 30.0833 15.5001 30.0833ZM10.9647 17.2062L10.9836 17.196L12.2524 21.3814C12.4157 21.835 12.6403 21.9166 12.913 21.8787C13.1872 21.8423 13.3315 21.695 13.5109 21.5229L15.2434 19.8487L18.9622 22.602C19.6417 22.9768 20.1303 22.7829 20.2995 21.972L22.7159 10.565C22.9828 9.50329 22.5161 9.07746 21.6922 9.41579L7.49821 14.8991C6.52987 15.287 6.53571 15.8295 7.32321 16.0702L10.9647 17.2062Z" fill="black"/>
</svg>
