<svg width="29" height="30" viewBox="0 0 29 30" fill="none" xmlns="http://www.w3.org/2000/svg">
<path d="M14.5 29.1666C6.90588 29.1666 0.75 22.8242 0.75 14.9999C0.75 7.17567 6.90588 0.833252 14.5 0.833252C22.0941 0.833252 28.25 7.17567 28.25 14.9999C28.25 22.8242 22.0941 29.1666 14.5 29.1666ZM10.2238 16.6574L10.2416 16.6475L11.4379 20.7133C11.5919 21.1539 11.8036 21.2333 12.0608 21.1964C12.3193 21.161 12.4554 21.0179 12.6245 20.8508L14.258 19.2244L17.7642 21.8991C18.405 22.2632 18.8656 22.0748 19.0251 21.2871L21.3035 10.2059C21.5551 9.17459 21.1151 8.76092 20.3383 9.08959L6.95538 14.4163C6.04238 14.7931 6.04787 15.3201 6.79038 15.5538L10.2238 16.6574Z" fill="#F7BB42"/>
</svg>
