<svg width="30" height="24" viewBox="0 0 30 24" fill="none" xmlns="http://www.w3.org/2000/svg">
<path d="M29.3962 3.01256C28.3146 3.49096 27.1677 3.80515 25.9933 3.94473C27.2312 3.20443 28.1576 2.03933 28.6 0.666563C27.4383 1.3579 26.1648 1.8424 24.8373 2.10448C23.9457 1.15047 22.7639 0.517761 21.4755 0.304724C20.1872 0.0916883 18.8646 0.310258 17.7133 0.926454C16.562 1.54265 15.6466 2.52195 15.1093 3.7121C14.572 4.90226 14.4429 6.23658 14.7422 7.50765C12.3864 7.38957 10.0818 6.77739 7.978 5.71084C5.87419 4.64429 4.01819 3.14721 2.53051 1.31681C2.00392 2.22128 1.7272 3.24947 1.72868 4.29606C1.72868 6.35023 2.77418 8.16498 4.36368 9.22748C3.42303 9.19787 2.50308 8.94384 1.68051 8.48656V8.56023C1.6808 9.9283 2.1542 11.2542 3.02046 12.3131C3.88673 13.3719 5.09253 14.0987 6.43343 14.37C5.56022 14.6066 4.64462 14.6415 3.75593 14.472C4.13399 15.6496 4.87086 16.6794 5.86335 17.4174C6.85585 18.1553 8.05428 18.5644 9.29085 18.5874C8.06186 19.5526 6.65468 20.2661 5.14976 20.6871C3.64484 21.1082 2.07169 21.2284 0.520264 21.0411C3.2285 22.7828 6.38115 23.7074 9.6011 23.7044C20.4995 23.7044 26.4594 14.676 26.4594 6.84606C26.4594 6.59106 26.4523 6.33323 26.441 6.08106C27.6011 5.24263 28.6023 4.20401 29.3976 3.01398L29.3962 3.01256Z" fill="#F7BB42"/>
</svg>
